<?xml version="1.0" standalone="no"?>
<!DOCTYPE svg PUBLIC "-//W3C//DTD SVG 20010904//EN"
 "http://www.w3.org/TR/2001/REC-SVG-20010904/DTD/svg10.dtd">
<svg version="1.0" xmlns="http://www.w3.org/2000/svg"
 width="647.000000pt" height="647.000000pt" viewBox="0 0 647.000000 647.000000"
 preserveAspectRatio="xMidYMid meet">
<metadata>
Created by potrace 1.14, written by Peter Selinger 2001-2017
</metadata>
<g transform="translate(0.000000,647.000000) scale(0.100000,-0.100000)"
fill="#000000" stroke="none">
<path d="M2972 6411 c-7 -4 -12 -14 -10 -22 2 -8 -7 -14 -22 -16 -14 -1 -19 0
-12 3 6 3 10 10 6 15 -7 12 -124 12 -124 -1 0 -5 6 -10 13 -10 8 0 7 -3 -3
-10 -10 -6 -17 -5 -23 5 -8 15 -52 20 -80 9 -9 -3 -13 -13 -10 -25 3 -10 0
-19 -6 -19 -6 0 -10 6 -8 13 1 7 -12 13 -37 15 -31 3 -38 0 -33 -11 9 -23 -4
-29 -19 -10 -11 15 -17 16 -46 5 -19 -6 -44 -12 -56 -12 -11 0 -24 -5 -27 -10
-4 -6 -11 -7 -17 -4 -5 4 -20 2 -31 -3 -23 -11 -94 -31 -139 -40 -16 -3 -28
-9 -28 -14 0 -5 -7 -6 -15 -3 -8 3 -17 0 -20 -8 -4 -10 -15 -13 -31 -10 -14 2
-24 0 -24 -7 0 -7 -5 -9 -10 -6 -6 4 -16 2 -23 -3 -7 -5 -27 -13 -45 -17 -18
-4 -36 -13 -39 -21 -3 -8 -9 -11 -14 -8 -5 3 -26 -2 -46 -11 -139 -60 -237
-108 -251 -122 -7 -7 -20 -13 -27 -13 -8 0 -20 -8 -27 -17 -7 -10 -17 -18 -23
-18 -5 0 -29 -10 -52 -23 -29 -15 -43 -29 -43 -42 0 -11 -4 -20 -10 -20 -5 0
-7 7 -4 15 4 8 4 15 0 15 -6 0 -94 -59 -111 -75 -7 -5 -28 -19 -48 -30 -20
-11 -37 -23 -37 -26 0 -4 -16 -17 -36 -29 -20 -13 -33 -28 -30 -35 2 -8 -1
-16 -9 -19 -8 -3 -15 0 -17 5 -5 14 -59 -37 -56 -52 2 -6 -3 -14 -11 -17 -9
-3 -11 0 -6 9 13 21 -52 -29 -74 -56 -10 -14 -24 -25 -30 -25 -6 0 -8 -7 -4
-16 7 -18 -18 -39 -28 -23 -6 11 -199 -176 -199 -193 0 -5 4 -6 10 -3 5 3 10
1 10 -6 0 -6 -8 -9 -20 -6 -11 3 -20 2 -20 -3 0 -4 -17 -25 -38 -47 -51 -54
-96 -109 -137 -168 -20 -27 -39 -52 -43 -55 -5 -3 -19 -23 -32 -45 -13 -22
-26 -42 -29 -45 -9 -7 -71 -100 -71 -105 0 -6 -73 -129 -80 -135 -10 -8 -50
-95 -50 -108 0 -7 -3 -12 -7 -12 -7 0 -20 -25 -59 -115 -7 -16 -20 -47 -29
-68 -9 -20 -14 -41 -11 -46 3 -5 0 -11 -8 -14 -8 -3 -17 -21 -21 -39 -4 -18
-12 -38 -17 -45 -5 -7 -7 -17 -3 -23 3 -5 1 -10 -6 -10 -7 0 -9 -10 -7 -24 3
-16 0 -27 -10 -31 -8 -3 -11 -12 -8 -20 3 -8 2 -15 -3 -15 -5 0 -11 -12 -14
-27 -9 -45 -29 -117 -39 -139 -5 -11 -8 -24 -7 -30 1 -5 0 -16 -3 -24 -15 -41
-29 -120 -23 -130 3 -5 1 -10 -5 -10 -7 0 -10 -15 -8 -37 2 -24 8 -37 16 -36
6 2 12 -2 12 -8 0 -6 -9 -9 -19 -6 -12 3 -22 -1 -25 -10 -11 -28 -6 -72 9 -80
10 -6 11 -13 5 -23 -7 -10 -10 -11 -10 -2 0 6 -4 12 -10 12 -13 0 -13 -117 -1
-124 5 -4 12 0 14 6 3 7 6 3 6 -9 1 -25 -15 -40 -22 -21 -15 44 -22 -34 -22
-252 0 -218 7 -296 22 -252 7 19 23 4 22 -21 0 -12 -3 -16 -6 -9 -2 6 -9 10
-14 6 -10 -6 -13 -117 -3 -127 4 -3 8 -26 10 -49 6 -84 16 -138 26 -138 5 0 6
-5 3 -10 -6 -10 8 -89 23 -130 3 -8 4 -19 3 -24 -1 -6 2 -19 7 -30 10 -22 30
-94 39 -138 3 -16 9 -28 14 -28 5 0 6 -7 3 -15 -3 -8 0 -17 8 -20 10 -4 13
-15 10 -31 -2 -14 0 -24 7 -24 7 0 9 -5 6 -10 -4 -6 -2 -16 3 -23 5 -7 13 -27
17 -45 4 -18 13 -36 21 -39 8 -3 11 -9 8 -14 -3 -5 2 -26 11 -46 9 -21 22 -51
29 -68 24 -55 110 -230 116 -235 7 -6 80 -129 80 -135 0 -5 62 -98 71 -105 3
-3 16 -23 29 -45 13 -22 27 -42 32 -45 4 -3 23 -28 42 -55 44 -62 79 -104 134
-163 23 -24 42 -48 42 -52 0 -13 242 -250 255 -250 7 0 15 -6 18 -13 3 -8 25
-29 48 -48 24 -19 39 -28 35 -20 -6 9 -5 12 5 9 8 -3 13 -11 11 -17 -1 -7 10
-23 25 -37 20 -18 28 -21 35 -12 7 12 12 4 9 -14 0 -4 14 -17 32 -29 17 -12
37 -27 42 -33 6 -7 28 -23 50 -36 22 -13 42 -26 45 -29 9 -10 100 -71 106 -71
4 0 4 7 0 15 -3 8 -1 15 4 15 6 0 10 -9 10 -20 0 -13 14 -27 42 -42 24 -13 48
-23 53 -23 6 0 16 -8 23 -17 7 -10 19 -18 27 -18 7 0 20 -6 27 -13 14 -14 112
-62 251 -122 20 -9 41 -14 46 -11 5 3 11 0 14 -8 3 -8 21 -17 39 -21 18 -4 38
-12 45 -17 7 -5 17 -7 23 -3 5 3 10 1 10 -6 0 -7 10 -9 24 -7 16 3 27 0 31
-10 3 -8 12 -11 20 -8 8 3 15 2 15 -3 0 -5 12 -11 28 -14 44 -9 116 -29 132
-37 9 -4 36 -11 60 -15 25 -3 60 -12 78 -18 29 -10 36 -9 46 6 14 18 28 13 20
-8 -5 -13 35 -22 134 -29 23 -2 46 -6 49 -10 10 -10 121 -7 127 3 4 5 0 12 -6
14 -7 3 -3 6 9 6 25 1 40 -15 21 -22 -44 -15 34 -22 252 -22 218 0 296 7 252
22 -19 7 -4 23 21 22 12 0 16 -3 9 -6 -6 -2 -10 -9 -6 -14 7 -12 124 -12 124
1 0 6 -6 10 -12 10 -9 0 -8 3 2 10 10 6 17 5 23 -5 8 -15 52 -20 80 -9 9 3 13
13 10 25 -3 11 0 19 6 19 7 0 9 -5 6 -10 -11 -18 25 -23 83 -12 81 15 115 23
132 29 8 4 19 5 24 4 6 -1 19 2 30 7 22 10 94 30 139 39 15 3 27 9 27 13 0 4
6 7 13 7 24 -1 77 16 77 25 0 5 5 6 10 3 6 -4 16 -2 23 3 7 5 27 13 45 17 18
4 36 13 39 21 3 8 9 11 14 8 8 -5 23 1 124 46 22 9 55 24 73 31 17 8 32 17 32
21 0 3 14 9 30 13 17 4 30 10 30 15 0 5 9 11 20 15 10 3 51 24 90 47 47 27 70
47 70 59 0 11 4 19 10 19 5 0 7 -7 4 -15 -4 -8 -4 -15 0 -15 6 0 94 59 111 75
7 6 28 19 48 30 20 10 42 32 48 48 8 20 14 24 20 16 10 -17 42 8 35 27 -3 7 1
15 9 18 8 3 15 0 17 -5 5 -14 59 37 56 52 -2 6 3 14 11 17 9 3 11 0 6 -9 -13
-21 52 29 74 56 10 14 24 25 30 25 6 0 8 7 4 16 -7 18 18 39 28 23 3 -6 47 31
98 82 51 51 88 95 82 98 -16 10 5 35 23 28 9 -4 16 -3 16 2 0 5 17 26 38 48
51 54 96 109 137 168 20 27 39 52 43 55 5 3 19 23 32 45 13 22 26 42 29 45 9
7 71 100 71 105 0 6 73 129 80 135 10 8 50 95 50 108 0 7 3 12 8 12 6 0 19 25
58 115 7 17 20 47 29 68 9 20 14 41 11 46 -3 5 0 11 8 14 8 3 17 21 21 39 4
18 12 38 17 45 5 7 7 17 3 23 -3 5 -1 10 6 10 7 0 9 10 7 24 -3 16 0 27 10 31
8 3 11 12 8 20 -3 8 -2 15 3 15 5 0 11 12 14 28 9 44 29 116 39 138 5 11 8 24
7 30 -1 5 0 16 4 24 10 27 19 74 21 108 0 17 5 32 9 32 5 0 7 17 5 38 -2 23
-8 36 -15 35 -7 -2 -13 2 -13 8 0 6 9 9 20 6 23 -6 36 26 27 68 -2 14 0 28 4
31 12 7 11 121 0 128 -5 4 -12 0 -14 -6 -3 -7 -6 -3 -6 9 -1 25 15 40 22 21
15 -44 22 34 22 252 0 218 -7 296 -22 252 -7 -19 -23 -4 -22 21 0 12 3 16 6 9
2 -6 9 -10 14 -6 10 6 13 117 3 127 -4 3 -8 26 -10 49 -6 84 -16 138 -26 138
-5 0 -6 5 -3 10 6 10 -8 89 -23 130 -3 8 -4 19 -3 24 1 6 -2 19 -7 30 -10 22
-30 94 -39 139 -3 15 -9 27 -14 27 -5 0 -6 7 -3 15 3 8 0 17 -8 20 -10 4 -13
15 -10 31 2 14 0 24 -7 24 -7 0 -9 5 -6 10 4 6 2 16 -3 23 -5 7 -13 27 -17 45
-4 18 -13 36 -21 39 -8 3 -11 9 -8 14 3 5 -2 26 -11 46 -9 21 -22 52 -29 68
-25 58 -110 230 -117 235 -3 3 -21 32 -39 65 -32 58 -99 165 -111 175 -3 3
-16 23 -29 45 -13 22 -27 42 -32 45 -4 3 -23 28 -42 55 -44 62 -79 104 -133
163 -24 24 -43 48 -43 52 0 13 -242 250 -255 250 -7 0 -15 6 -18 13 -3 8 -25
29 -48 48 -24 19 -39 28 -35 20 6 -9 5 -12 -5 -9 -8 3 -13 11 -11 17 3 15 -51
66 -56 52 -2 -5 -9 -8 -17 -5 -8 3 -12 11 -9 18 7 19 -25 44 -35 27 -6 -8 -12
-4 -20 16 -6 16 -28 38 -48 48 -20 11 -41 25 -48 30 -17 16 -105 75 -111 75
-4 0 -4 -7 0 -15 3 -8 1 -15 -4 -15 -6 0 -10 8 -10 19 0 12 -23 32 -70 59 -39
23 -80 44 -90 47 -11 4 -20 10 -20 15 0 5 -13 11 -30 15 -16 4 -30 10 -30 13
0 4 -15 13 -32 21 -18 7 -51 22 -73 31 -101 45 -116 51 -124 46 -5 -3 -11 0
-14 8 -3 8 -21 17 -39 21 -18 4 -38 12 -45 17 -7 5 -17 7 -23 3 -5 -3 -10 -2
-10 3 0 9 -53 26 -77 25 -7 0 -13 3 -13 7 0 4 -12 10 -27 13 -45 9 -117 29
-139 39 -11 5 -24 8 -30 7 -5 -1 -16 0 -24 4 -35 13 -223 48 -278 52 -23 1
-46 5 -49 9 -10 10 -121 7 -127 -3 -4 -5 0 -12 6 -15 7 -3 2 -4 -12 -3 -15 2
-24 8 -22 16 2 8 -3 18 -10 22 -17 11 -459 11 -476 0z"/>
</g>
</svg>
